<svg width="130" height="53" viewBox="0 0 130 53" fill="none" xmlns="http://www.w3.org/2000/svg">
<g clip-path="url(#clip0_1_205)">
<path fill-rule="evenodd" clip-rule="evenodd" d="M1.4593 12.1904C2.72948 13.9158 4.40351 14.9431 6.48138 15.2722C8.55925 15.6013 10.4537 15.1392 12.1649 13.886C13.9061 12.6373 14.9431 10.9625 15.2759 8.86121C15.6087 6.75996 15.1374 4.86273 13.8622 3.16954C12.6221 1.44878 10.9631 0.423863 8.88525 0.0947616C6.80739 -0.23434 4.89783 0.225387 3.15661 1.47395C1.45061 2.69495 0.431214 4.35608 0.0984083 6.45733C-0.234397 8.55858 0.219242 10.4695 1.4593 12.1904ZM10.1403 2.48531C10.7741 3.35756 10.5807 4.5784 9.70844 5.21213L9.5269 5.34403L10.7188 6.98447L12.247 5.87415C12.8683 6.7293 12.6946 7.91948 11.8657 8.56302L12.3182 9.18595C12.6351 9.62207 12.5384 10.2325 12.1022 10.5494C11.6662 10.8662 11.0557 10.7695 10.7389 10.3334L10.2869 9.7113L8.5997 10.9371L9.19584 11.7576C9.51269 12.1937 9.41601 12.8041 8.97989 13.121C8.54375 13.4379 7.93333 13.3412 7.61647 12.9051L7.02032 12.0846L6.14216 12.7226C5.70602 13.0395 5.0956 12.9428 4.77875 12.5066C4.46187 12.0706 4.55856 11.4601 4.99468 11.1433L5.87287 10.5052L4.68102 8.86477L3.97625 9.37681C3.54013 9.69368 2.92971 9.597 2.61285 9.16086C2.29598 8.72473 2.39266 8.11431 2.82879 7.79746L3.53355 7.28541L3.4518 7.1729C2.81807 6.30064 3.01143 5.07979 3.88369 4.44607L5.11291 6.13794L6.80008 4.91214L6.78106 4.88597C6.14732 4.01372 6.34068 2.79287 7.21295 2.15914L8.37943 3.76468L10.1403 2.48531ZM6.26037 7.7173L7.94754 6.49149L9.1394 8.13195L7.45222 9.35774L6.26037 7.7173Z" fill="#98F9FF"/>
<path d="M3.02954 52.282V18.5975H12.3696V52.282H3.02954Z" fill="white"/>
<path d="M29.1816 32.8186V52.2822H19.8416V18.5977H29.031V24.5934H29.3624C30.1257 22.625 31.3409 21.0683 33.008 19.9234C34.6752 18.7583 36.7541 18.1759 39.2448 18.1759C42.7598 18.1759 45.5719 19.3108 47.6809 21.5805C49.81 23.8302 50.8746 26.9234 50.8746 30.8603V52.2822H41.5346V32.5174C41.5346 30.4485 41.0023 28.8316 39.9378 27.6666C38.8932 26.5016 37.437 25.919 35.569 25.919C33.6809 25.919 32.1444 26.5317 30.9592 27.7569C29.7742 28.9621 29.1816 30.6494 29.1816 32.8186Z" fill="white"/>
<path d="M60.5462 52.282V25.6477H55.8158V18.5975H60.5462V16.157C60.5462 12.5214 61.5906 9.79978 63.6796 7.99203C65.7887 6.18428 68.4199 5.2804 71.5734 5.2804C73.0197 5.2804 74.3353 5.40092 75.5203 5.64195C76.7255 5.8629 77.6093 6.05372 78.1717 6.2144L76.5146 13.2044C76.153 13.104 75.7111 13.0035 75.1889 12.9031C74.6667 12.8026 74.1143 12.7524 73.5318 12.7524C72.1659 12.7524 71.2018 13.0738 70.6394 13.7166C70.0971 14.3393 69.8259 15.2231 69.8259 16.3679V18.5975H76.5447V25.6477H69.8259V52.282H60.5462Z" fill="white"/>
<path d="M91.6093 7.3894V52.2819H82.2693V7.3894H91.6093Z" fill="white"/>
<path d="M120.654 37.9706V18.5975H129.994V52.282H121.015V46.1657H120.654C119.911 48.1342 118.655 49.721 116.887 50.9262C115.141 52.1313 113.001 52.7238 110.47 52.7038C107.076 52.7238 104.324 51.6091 102.215 49.3595C100.126 47.0898 99.0813 43.9864 99.0813 40.0495V18.5975H108.421V38.4226C108.421 40.3909 108.954 41.9577 110.018 43.1226C111.083 44.2676 112.499 44.8301 114.267 44.8099C115.934 44.8301 117.41 44.2576 118.695 43.0926C120.001 41.9276 120.654 40.2203 120.654 37.9706Z" fill="white"/>
</g>
<defs>
<clipPath id="clip0_1_205">
<rect width="130" height="52.752" fill="white"/>
</clipPath>
</defs>
</svg>
